<svg xmlns="http://www.w3.org/2000/svg" version="1.1" xmlns:xlink="http://www.w3.org/1999/xlink" xmlns:svgjs="http://svgjs.com/svgjs" width="1000" height="1000"><rect width="1000" height="1000" rx="200" ry="200" fill="#ffffff"></rect><g transform="matrix(0.8,0,0,0.8,100,100)"><svg xmlns="http://www.w3.org/2000/svg" version="1.1" xmlns:xlink="http://www.w3.org/1999/xlink" xmlns:svgjs="http://svgjs.com/svgjs" width="1000" height="1000"><svg xmlns="http://www.w3.org/2000/svg" version="1.1" xmlns:xlink="http://www.w3.org/1999/xlink" xmlns:svgjs="http://svgjs.com/svgjs" width="1000" height="1000"><rect width="1000" height="1000" rx="200" ry="200" fill="#ffffff"></rect><g transform="matrix(1.5625,0,0,1.5625,100.01290893554688,99.99866962432861)"><svg xmlns="http://www.w3.org/2000/svg" version="1.1" xmlns:xlink="http://www.w3.org/1999/xlink" xmlns:svgjs="http://svgjs.com/svgjs" width="512" height="512"><svg xmlns="http://www.w3.org/2000/svg" version="1.1" xmlns:dc="http://purl.org/dc/elements/1.1/" xmlns:xl="http://www.w3.org/1999/xlink" viewBox="2193 -144 512 512" width="512" height="512">
  <defs></defs>
  <g id="Canvas_1" stroke-dasharray="none" fill-opacity="1" stroke-opacity="1" stroke="none" fill="none">
    <title>Canvas 1</title>
    <g id="Canvas_1_Layer_1">
      <title>Layer 1</title>
      <g id="Graphic_37"></g>
      <g id="Group_38">
        <g id="Graphic_26">
          <path d="M 2502.5537 -93.82604 L 2657.5385 -94.32694 C 2658.0534 -94.32861 2658.472 -93.9126 2658.4737 -93.39777 C 2658.4742 -93.26199 2658.445 -93.12776 2658.388 -93.00445 L 2468.9934 317.78977 C 2468.841 318.1201 2468.5106 318.33167 2468.147 318.33167 L 2387.6908 318.33167 C 2387.3183 318.33167 2386.9816 318.1099 2386.8344 317.7677 L 2239.5565 -24.767747 C 2239.353 -25.240718 2239.5717 -25.788993 2240.0447 -25.992353 C 2240.1597 -26.041826 2240.2836 -26.067605 2240.4088 -26.06815 L 2471.7306 -27.07456 C 2472.0974 -27.076156 2472.4292 -27.29272 2472.5783 -27.62787 L 2490.0573 -66.92129 C 2490.0576 -66.921955 2490.058 -66.92262 2490.0581 -66.92329 L 2501.704 -93.27072 C 2501.853 -93.60729 2502.1858 -93.82485 2502.5537 -93.82604 Z" stroke="#2188ff" stroke-linecap="round" stroke-linejoin="round" stroke-width="37.287775"></path>
        </g>
        <g id="Graphic_25">
          <path d="M 2501.387 56.85464 L 2435.057 198.7496 C 2434.839 199.216 2434.2842 199.41734 2433.8178 199.19932 C 2433.6196 199.10664 2433.4602 198.94714 2433.3677 198.74877 L 2367.038 56.48904 C 2366.8204 56.02243 2367.0223 55.4678 2367.489 55.25024 C 2367.613 55.192356 2367.7484 55.16254 2367.8854 55.16292 L 2500.545 55.52769 C 2501.0598 55.5291 2501.476 55.94761 2501.4746 56.46244 C 2501.4742 56.597996 2501.4443 56.73184 2501.387 56.85464 Z" stroke="#2188ff" stroke-linecap="round" stroke-linejoin="round" stroke-width="37.287775"></path>
        </g>
      </g>
    </g>
  </g>
</svg></svg></g></svg></svg></g></svg>