<?xml version="1.0" encoding="UTF-8" standalone="no"?>
<!DOCTYPE svg PUBLIC "-//W3C//DTD SVG 1.1//EN" "http://www.w3.org/Graphics/SVG/1.1/DTD/svg11.dtd">
<svg xmlns:dc="http://purl.org/dc/elements/1.1/" xmlns:xl="http://www.w3.org/1999/xlink" xmlns="http://www.w3.org/2000/svg" version="1.1" viewBox="1557 -124 396.4 347.2" width="396.4" height="347.2">
  <defs/>
  <g id="Canvas_1" stroke-dasharray="none" fill-opacity="1" stroke="none" fill="none" stroke-opacity="1">
    <title>Canvas 1</title>
    <g id="Canvas_1_Layer_1">
      <title>Layer 1</title>
      <g id="Graphic_26">
        <path d="M 1803.016 -112.60176 L 1940.7453 -112.99527 C 1941.2976 -112.99685 1941.7466 -112.55042 1941.7482 -111.99813 C 1941.7486 -111.83615 1941.7097 -111.67648 1941.6348 -111.53286 L 1773.0803 211.66242 C 1772.908 211.99282 1772.5663 212.2 1772.1937 212.2 L 1700.6256 212.2 C 1700.2429 212.2 1699.8937 211.98156 1699.7263 211.63738 L 1568.6961 -57.768745 C 1568.4546 -58.2654 1568.6614 -58.863844 1569.158 -59.1054 C 1569.2931 -59.171114 1569.4413 -59.20554 1569.5915 -59.20612 L 1775.3864 -59.997635 C 1775.7628 -59.99908 1776.1066 -60.21184 1776.2758 -60.54814 L 1791.7994 -91.39886 C 1791.7998 -91.39962 1791.8002 -91.40038 1791.8006 -91.40113 L 1802.1245 -112.04897 C 1802.2934 -112.38684 1802.6383 -112.60068 1803.016 -112.60176 Z" fill="white"/>
        <path d="M 1803.016 -112.60176 L 1940.7453 -112.99527 C 1941.2976 -112.99685 1941.7466 -112.55042 1941.7482 -111.99813 C 1941.7486 -111.83615 1941.7097 -111.67648 1941.6348 -111.53286 L 1773.0803 211.66242 C 1772.908 211.99282 1772.5663 212.2 1772.1937 212.2 L 1700.6256 212.2 C 1700.2429 212.2 1699.8937 211.98156 1699.7263 211.63738 L 1568.6961 -57.768745 C 1568.4546 -58.2654 1568.6614 -58.863844 1569.158 -59.1054 C 1569.2931 -59.171114 1569.4413 -59.20554 1569.5915 -59.20612 L 1775.3864 -59.997635 C 1775.7628 -59.99908 1776.1066 -60.21184 1776.2758 -60.54814 L 1791.7994 -91.39886 C 1791.7998 -91.39962 1791.8002 -91.40038 1791.8006 -91.40113 L 1802.1245 -112.04897 C 1802.2934 -112.38684 1802.6383 -112.60068 1803.016 -112.60176 Z" stroke="#1b7af4" stroke-linecap="round" stroke-linejoin="round" stroke-width="22"/>
      </g>
      <g id="Graphic_25">
        <path d="M 1774.4854 25.64028 L 1737.497 100.19215 C 1737.2515 100.68689 1736.6514 100.88897 1736.1567 100.6435 C 1735.9607 100.54625 1735.802 100.38737 1735.7049 100.19123 L 1698.7164 25.447714 C 1698.4715 24.952724 1698.6742 24.35288 1699.1692 24.107923 C 1699.3078 24.039295 1699.4606 24.003784 1699.6153 24.004185 L 1773.5922 24.195835 C 1774.1445 24.197266 1774.591 24.64614 1774.5896 25.198422 C 1774.5892 25.351748 1774.5536 25.50293 1774.4854 25.64028 Z" stroke="#1b7af4" stroke-linecap="round" stroke-linejoin="round" stroke-width="29"/>
      </g>
    </g>
  </g>
</svg>
